# xmcd
#
# Track frame offsets: 
#        150
#        13835
#        24918
#        44449
#        59474
#        74299
#        89453
#        100728
#        110042
#        117990
#        141533
#        162547
#        178146
#
# Disc length: 2514 seconds
#
# Revision: 0
# Processed by: cddbd v1.5.2PL0 Copyright (c) Steve Scherf et al.
# Submitted via: ExactAudioCopy v1.3
#
DISCID=be09d00d
DTITLE=John Clifton - Let Yourself Go
DYEAR=2015
DGENRE=Electric Blues, Harmonica Blues
TTITLE0=Let Yourself Go
TTITLE1=The Gamble
TTITLE2=Beer Joint
TTITLE3=Would You Understand
TTITLE4=Big John From Mississippi
TTITLE5=Anytime Is Cool
TTITLE6=Dig Yourself
TTITLE7=Have Your Way Baby
TTITLE8=Buddy Buddy Friends
TTITLE9=Garbage Day
TTITLE10=Tell Me Baby
TTITLE11=Everytime You Come Around
TTITLE12=Big Man In A Small Town
EXTD=
EXTT0=
EXTT1=
EXTT2=
EXTT3=
EXTT4=
EXTT5=
EXTT6=
EXTT7=
EXTT8=
EXTT9=
EXTT10=
EXTT11=
EXTT12=
PLAYORDER=
